<!-- Generated -->
<svg xmlns="http://www.w3.org/2000/svg" data-bone="shin-front"><path d="M0.3 0.7L4.9 0.7Q5.6 0.7 5.7 1.4L8.4 18.6Q8.5 19.3 7.9 19.1L-4.9 16.4Q-5.6 16.3-5.7 15.7L-9.1 2.9Q-9.3 2.2-8.6 2.1L-1 0.9Q-0.4 0.7 0.3 0.7Z" fill="#110805"/><path d="M0.3 0.7L4.9 0.7Q5.6 0.7 5.7 1.4L8.4 18.6Q8.5 19.3 7.9 19.1L-4.9 16.4Q-5.6 16.3-5.7 15.7L-9.1 2.9Q-9.3 2.2-8.6 2.1L-1 0.9Q-0.4 0.7 0.3 0.7ZM-0.6 2.8L-1.6 5.3Q-1.9 5.9-2.4 5.6L-7.2 3.3Q-7.8 3-7.8 3.6L-7.8 6.7Q-7.8 7.4-7.1 7.4L3.4 6.7Q4.1 6.7 4 6L3.4 2.9Q3.3 2.2 2.7 2.2L0.3 2.2Q-0.4 2.2-0.6 2.8ZM-0.2 10.3L1.7 16.4Q1.9 17 2.5 17L4.1 17Q4.8 17 4.7 16.4L4.1 11Q4.1 10.4 3.4 10.3L0.3 9.7Q-0.4 9.6-0.2 10.3ZM-4.4 10.4L-4.4 10.4Q-4.8 10.4-4.8 11L-4.8 11.9Q-4.8 12.6-4.4 12.6L-4.4 12.6Q-4.1 12.6-4.1 13L-4.1 13Q-4.1 13.3-3.7 13.3L-3.7 13.3Q-3.3 13.3-3.3 14L-3.3 15.6Q-3.3 16.3-2.7 16.3L-2.5 16.3Q-1.9 16.3-1.9 15.9L-1.9 15.9Q-1.9 15.6-2.2 15.6L-2.2 15.6Q-2.6 15.6-2.6 14.9L-2.6 13.3Q-2.6 12.6-3 12.6L-3 12.6Q-3.3 12.6-3.3 11.9L-3.3 11.8Q-3.3 11.1-3.7 11.1L-3.7 11.1Q-4.1 11.1-4.1 10.7L-4.1 10.7Q-4.1 10.4-4.4 10.4ZM6.7 15.6L6.7 15.6Q6.3 15.6 6.3 16.2L6.3 16.4Q6.3 17 6.7 17L6.7 17Q7 17 7 16.4L7 16.2Q7 15.6 6.7 15.6Z" fill="#110805" stroke="#110805" stroke-width="0.371" stroke-linejoin="round"/><path d="M0.2 9.7L3.5 10.3Q4.1 10.4 4.1 11L4.8 16.5Q4.8 17 4.2 17L2.4 17Q1.9 17 1.7 16.5L-0.2 10.2Q-0.4 9.6 0.2 9.7Z" fill="#96725c" stroke="#96725c" stroke-width="0.371" stroke-linejoin="round"/><path d="M0.1 2.2L2.9 2.2Q3.3 2.2 3.4 2.7L4 6.2Q4.1 6.7 3.6 6.7L1.5 6.7Q1.1 6.7 1 6.3L-0.2 2.6Q-0.4 2.2 0.1 2.2Z" fill="#5b3f31"/><path d="M-4.5 4.5L-0.4 5.9L-6.3 6.7L-5 4.7Q-4.8 4.4-4.5 4.5Z" fill="#5b3f31"/><path d="M-7.5 3L-6.6 3Q-6.3 3-6.3 3.3L-6.3 7.1Q-6.3 7.4-6.6 7.4L-7.5 7.4Q-7.8 7.4-7.8 7.1L-7.8 3.3Q-7.8 3-7.5 3Z" fill="#96725c"/><path d="M-4.8 10.4L-3.6 11Q-3.3 11.1-3.3 11.4L-1.9 16Q-1.9 16.3-2.1 16.3L-3 16.3Q-3.3 16.3-3.4 16Z" fill="#5b3f31"/><path d="M-0.2 5.3L0.9 5.8Q1.1 5.9 1.1 6.1L1.1 7.2Q1.1 7.4 0.9 7.4L-0.9 7.4Q-1.1 7.4-1 7.2L-0.4 5.4Q-0.4 5.2-0.2 5.3Z" fill="#96725c"/><path d="M6.4 15.6L6.9 15.6Q7 15.6 7 15.7L7 16.9Q7 17 6.9 17L6.4 17Q6.3 17 6.3 16.9L6.3 15.7Q6.3 15.6 6.4 15.6Z" fill="#96725c"/></svg>
